<svg width="462" height="164" viewBox="0 0 462 164" fill="none" xmlns="http://www.w3.org/2000/svg">
<g clip-path="url(#clip0)">
<path d="M260.409 123.627C260.451 123.542 260.451 123.415 260.494 123.33L125.542 79.5046C125.542 79.4198 125.584 79.3774 125.584 79.2925L163.394 88.9655C163.31 87.9897 163.141 87.2685 163.141 86.5897C163.141 84.9351 162.339 84.1714 160.82 83.6623C157.57 82.5593 154.363 81.2865 151.156 80.0562C147.865 78.8258 144.573 77.5531 141.282 76.3227C141.324 76.2379 141.324 76.1531 141.366 76.0682L218.801 98.1293C218.843 98.0445 218.843 97.9596 218.885 97.8748L160.862 75.1773C161.79 74.2015 162.508 73.353 163.31 72.5893C167.951 68.0498 172.129 63.1285 175.843 57.8254C179.05 53.2434 181.835 48.4494 183.227 42.9765C185 36.2309 186.224 29.358 186.308 22.3579C186.35 18.9214 187.447 15.6123 189.473 12.8546C191.076 10.5637 192.849 8.39998 194.452 6.10902C196.098 3.77564 195.381 1.78165 192.596 0.933147C190.106 0.0846426 187.363 0.466469 185.169 1.99378C181.624 4.49686 178.628 7.67876 177.953 12.1334C177.362 16.2911 176.982 20.4912 176.898 24.6913C176.602 32.7945 175.463 40.6431 171.412 47.7706C167.445 54.6435 162.634 61.0072 157.191 66.7346C153.899 70.2135 150.186 71.656 145.67 71.0196C140.691 70.3408 135.711 69.4499 130.774 68.4741C117.313 65.9286 103.851 63.2982 90.4321 60.6678C89.4615 60.4557 88.5753 59.9466 87.8579 59.2254C86.7608 57.9526 85.2838 57.0617 83.6803 56.6799C82.5409 56.4253 81.4437 56.0011 80.3044 55.6192C77.055 54.5586 73.8057 53.498 70.5142 52.4374C70.5142 52.3949 70.5564 52.3525 70.5564 52.3101L112.882 62.1952C112.924 62.0679 112.966 61.8982 113.008 61.7709L71.0628 48.2797C71.105 48.1948 71.105 48.0676 71.1472 47.9827L79.798 49.2979C78.0256 47.7706 76.0845 46.6675 74.2699 45.3948C72.4554 44.122 70.472 43.4432 68.3621 43.6978C64.7752 44.1644 61.1883 44.9281 57.6014 45.4796C56.884 45.6069 55.9134 45.6069 55.407 45.1826C51.4825 42.0432 47.0516 40.8977 42.1144 41.6614C39.3714 42.0856 36.7129 41.9159 34.2654 40.1765C33.337 39.5825 32.3664 39.2007 31.3115 38.9461C28.7795 38.2673 27.3026 38.9461 25.7834 41.0674C25.4036 41.5341 24.855 41.8311 24.2642 41.9159C19.749 42.3402 15.9089 44.2069 12.533 47.1766C11.5624 48.0676 11.0138 49.0858 11.4358 50.4858C11.7734 51.5889 11.3936 52.5222 10.4652 53.3283C9.41024 54.3465 8.43967 55.4071 7.5113 56.5102C6.66732 57.486 6.75172 58.3345 7.5113 59.3951C8.98826 61.4739 10.3808 63.5952 11.7734 65.7164C12.5752 66.9468 13.6301 67.2862 14.9805 66.7771C15.4447 66.6498 15.8667 66.3952 16.2465 66.0983C18.1876 64.2316 20.0866 64.3164 22.2387 65.8013C24.3486 67.2438 26.4586 66.9044 28.4841 65.3346C30.8051 63.5952 34.7718 64.8255 35.9111 67.4983C37.6835 71.656 39.5402 75.7712 41.3548 79.9289C41.397 79.9713 41.2704 80.0986 41.3126 80.0562C38.8651 79.9713 36.4175 80.0137 34.0122 79.844C31.4803 79.6743 28.9905 79.2077 26.4586 79.2077C23.5469 79.2077 20.8883 80.2683 19.4114 82.9835C18.6518 84.426 18.1032 85.9533 17.7656 87.523C16.6263 92.0201 17.5968 96.0929 20.5085 99.6566C21.9855 101.438 25.277 101.269 25.7412 99.2748C26.2898 96.9838 27.598 94.608 25.4458 92.1898C23.7157 90.2382 24.9816 87.523 27.5558 87.0139C28.6107 86.7594 29.7079 86.8018 30.7207 87.0563C35.4892 88.4988 40.2154 90.1534 45.0261 91.5534C49.9634 92.9534 55.0272 94.0989 60.0067 95.3717C61.3149 95.7111 62.0322 95.4141 62.1166 93.8868C62.2854 90.9594 62.623 88.0745 62.834 85.1896C62.9184 83.832 62.9184 82.4744 62.9606 81.1592C64.0156 84.8926 65.1128 88.6261 64.311 92.4868C64.1 93.5474 64.6064 94.0141 65.4504 94.2686C70.05 95.5838 74.5653 97.2808 79.2494 98.0869C94.8208 100.717 110.434 103.051 126.048 105.469C127.947 105.766 129.846 106.02 131.745 106.317C131.745 106.233 131.787 106.105 131.787 106.02C116.68 102.16 101.573 98.299 86.4654 94.4383C90.8119 94.7777 95.1162 95.3292 99.4204 95.9232C103.387 96.4747 107.312 96.9414 111.405 96.1777C114.696 95.6262 118.03 95.4565 121.364 95.7111C129.508 96.1353 136.133 99.5718 140.86 106.402C142.59 108.905 144.278 111.366 145.797 113.996C147.696 117.221 150.439 119.342 153.815 120.7C155.292 121.336 156.811 121.845 158.372 122.227C163.816 123.415 169.302 124.518 174.788 125.536C177.151 125.96 179.387 126.978 181.244 128.548C186.097 132.579 189.895 137.542 193.651 142.549C195.803 145.433 198.081 148.233 200.445 150.949C201.626 152.349 203.82 152.052 204.538 150.567C205.171 149.252 205.297 147.894 204.496 146.536C204.242 146.112 203.863 145.646 203.905 145.264C204.116 143.694 203.272 142.761 202.217 141.785C201.078 140.724 200.023 139.536 198.841 138.518C194.115 134.318 190.401 129.1 187.996 123.203C187.658 122.566 187.068 122.1 186.392 121.845C177.277 118.112 168.162 114.463 159.047 110.772C158.457 110.517 157.908 110.305 157.317 110.051C157.359 109.966 157.402 109.839 157.402 109.754L234.204 129.1C233.866 128.718 233.444 128.463 232.938 128.336C211.669 121.421 190.443 114.505 169.133 107.717C166.559 106.911 165.124 105.766 165.166 103.051C165.166 101.905 164.491 101.523 163.563 101.226C158.161 99.4021 152.802 97.5354 147.401 95.6686L132.926 90.7049C132.926 90.62 132.969 90.5776 133.011 90.4928L260.409 123.627ZM14.0943 54.3041C14.3053 53.3707 14.2209 52.3949 14.5585 52.2252C15.5713 51.7161 16.7528 51.0798 18.061 52.1828L14.0943 54.3041ZM32.7462 52.1404C32.5774 50.2737 32.6196 48.2373 32.1132 46.3706C31.2271 42.9765 30.0877 42.5099 26.8806 43.825C26.543 43.9523 26.2054 44.0796 25.7834 44.2493C26.7118 42.722 28.8639 41.2795 30.4253 41.2371C30.9317 41.2795 31.4381 41.4492 31.8178 41.8311C34.3076 43.9947 34.7296 49.5524 32.7462 52.1404Z" fill="#2BA55D"/>
<path d="M1.6457 92.2322C0.928322 93.2079 0.506334 94.4383 0.421936 95.6686C0.464135 96.602 0.886123 97.4929 1.6035 98.0444C2.19429 98.4262 3.24926 98.0868 4.09324 98.0444C4.43083 98.002 4.76842 97.7474 5.06381 97.8323C7.38475 98.2141 8.27092 98.002 9.2837 95.9656C10.4653 93.6322 12.322 92.614 14.7274 92.1897C15.1493 92.1049 15.4869 91.8079 15.6979 91.4261C16.1621 88.9654 16.5419 86.4623 17.0483 83.4077C13.3348 84.8502 9.74788 85.9532 6.45637 87.6502C4.59962 88.626 3.08046 90.5351 1.6457 92.2322Z" fill="#2BA55D"/>
<path d="M149.637 125.112C142.801 123.457 136.049 121.421 129.128 120.19C118.705 118.324 108.198 117.009 97.7325 115.481C94.8208 115.057 91.9091 114.633 88.9973 114.208C88.9973 114.293 88.9551 114.378 88.9551 114.463L175.378 131.73C174.872 131.391 174.323 131.136 173.733 131.009C165.673 129.1 157.655 127.106 149.637 125.112Z" fill="#2BA55D"/>
<path d="M108.282 112.469L108.324 112.214L61.7369 102.499L61.6525 102.838C65.577 104.069 69.5015 105.342 73.4682 106.487C77.2239 107.59 80.9796 108.778 84.7775 109.499C89.5882 110.39 94.441 110.772 99.2939 111.366C102.332 111.705 105.286 112.087 108.282 112.469Z" fill="#2BA55D"/>
<path d="M28.1466 88.8381C27.3026 88.9653 26.3743 89.3472 26.7119 90.3229C26.9651 91.0442 27.7668 91.9351 28.442 92.0624C32.4087 92.6563 36.3754 92.9957 40.3421 93.5473C42.874 93.8867 45.3638 94.4382 47.8535 94.8625L48.0223 94.2261C41.9456 92.4442 35.869 90.6199 29.7502 88.8381C29.2438 88.7532 28.6952 88.7532 28.1466 88.8381Z" fill="#2BA55D"/>
<path d="M32.7463 52.0981C32.5775 50.2314 32.6197 48.195 32.1133 46.3283C31.2271 42.9343 30.0877 42.4676 26.8806 43.7828C26.543 43.91 26.2054 44.0373 25.7834 44.207C26.7118 42.6797 28.864 41.2372 30.4253 41.1948C30.9317 41.2372 31.4381 41.4494 31.8179 41.7888C34.3076 43.9949 34.7296 49.5526 32.7463 52.0981Z" fill="#237745"/>
<path d="M54.7742 55.5771C54.2678 55.7044 53.8036 55.8741 53.3394 56.0863C53.1284 56.2135 53.044 56.4257 53.044 56.6802C53.2128 57.2317 53.466 57.7408 53.7192 58.2499C53.8458 58.3772 54.0146 58.4196 54.1834 58.3348C54.8164 57.9954 55.3227 57.4014 55.5759 56.7226C55.7447 56.1287 55.4493 55.7044 54.7742 55.5771Z" fill="#131413"/>
<path d="M49.6681 51.6314C50.1323 51.5466 50.5965 51.4617 51.0607 51.292C51.2717 51.2496 51.4405 51.0799 51.5249 50.9102C51.7359 50.5284 51.5671 50.0617 51.1873 49.8496C50.8497 49.6375 50.4699 49.4253 50.0479 49.2981C50.0479 49.2981 50.0057 49.2556 49.9635 49.2556C49.6681 49.1284 49.3305 49.2981 49.2039 49.595C49.0352 49.892 48.9086 50.189 48.8242 50.5284C48.6132 51.4193 48.6976 51.5466 49.6681 51.6314Z" fill="#131413"/>
<path d="M47.8113 58.4195C47.5159 58.2074 47.1783 58.0377 46.8407 57.9104C46.7985 57.9104 46.7985 57.868 46.7563 57.868C46.5031 57.7831 46.2077 57.9104 46.1233 58.165C45.9545 58.5468 45.8279 58.971 45.7435 59.3953C45.7013 59.6498 45.8279 59.8195 46.0811 59.8195C46.2077 59.8195 46.3765 59.862 46.5031 59.862V59.9044C46.8829 59.862 47.3049 59.7771 47.6847 59.6498C47.8535 59.6074 48.0223 59.4801 48.1067 59.3104C48.2755 59.0135 48.1489 58.5892 47.8113 58.4195Z" fill="#131413"/>
<path d="M44.8996 52.7771C44.5198 52.9468 44.1822 53.1589 43.8868 53.4559C43.7602 53.6256 43.718 53.8377 43.8024 54.0499C44.0556 54.4317 44.351 54.7711 44.6886 55.0681C44.8152 55.1105 44.984 55.1105 45.1106 55.0256C45.406 54.559 45.6591 54.0499 45.8279 53.7953C45.9123 52.9044 45.4904 52.5226 44.8996 52.7771Z" fill="#131413"/>
<path d="M42.663 47.0922C42.7896 47.2619 42.9584 47.3891 43.1694 47.4316C43.5914 47.5164 44.0133 47.2194 44.0977 46.7952C44.2243 46.3709 44.3087 45.9891 44.3509 45.5649C44.3509 45.5224 44.3509 45.5224 44.3509 45.48C44.3931 45.1406 44.1399 44.8861 43.8446 44.8436C43.507 44.7588 43.1694 44.7588 42.8318 44.7588C41.8612 44.7588 41.819 44.8861 41.9878 45.8194C42.1988 46.2861 42.4098 46.7103 42.663 47.0922Z" fill="#131413"/>
<path d="M38.4853 52.9468C39.3293 52.7771 39.5825 52.2256 39.2027 51.7589C38.9495 51.4619 38.6541 51.165 38.2743 50.9528C38.0633 50.868 37.8523 50.9104 37.6835 51.0377C37.3881 51.3771 37.1349 51.8013 36.924 52.1832C36.924 52.3529 36.9661 52.4801 37.0927 52.565C37.6413 52.7347 38.1899 52.862 38.4853 52.9468Z" fill="#131413"/>
<path d="M39.7514 57.6134C39.456 57.5286 39.1606 57.4013 38.8652 57.3589C38.7387 57.4862 38.4433 57.571 38.4011 57.7407C38.3167 58.0801 38.2745 58.4619 38.3167 58.8013C38.3167 58.8862 38.5277 59.0983 38.6121 59.0983C39.0762 59.0135 39.4982 58.8438 39.9202 58.6316C40.0468 58.5468 40.1312 58.4195 40.1734 58.2922C40.2156 57.9528 40.0046 57.6559 39.7514 57.6134Z" fill="#131413"/>
<path d="M38.6543 63.6803C38.3589 63.5955 38.0635 63.4682 37.7681 63.4258C37.6415 63.5531 37.3461 63.6379 37.3039 63.8076C37.2195 64.147 37.1773 64.5288 37.2195 64.8682C37.2195 64.9531 37.4305 65.1652 37.5149 65.1652C37.9791 65.0804 38.4011 64.9107 38.8231 64.6985C38.9497 64.6137 39.0341 64.4864 39.0763 64.3591C39.1185 64.0622 38.9497 63.7652 38.6543 63.6803Z" fill="#131413"/>
<path d="M108.662 90.79C108.156 90.9173 107.691 91.087 107.227 91.2991C107.016 91.4264 106.932 91.6385 106.932 91.8931C107.101 92.4446 107.354 92.9537 107.607 93.4628C107.734 93.5901 107.902 93.6325 108.071 93.5477C108.704 93.2083 109.211 92.6143 109.464 91.9355C109.633 91.2991 109.295 90.8749 108.662 90.79Z" fill="#131413"/>
<path d="M106.341 66.6923C106.004 66.4802 105.624 66.2681 105.202 66.0984C105.202 66.0984 105.16 66.0559 105.118 66.0559C104.822 65.9287 104.485 66.0984 104.358 66.3953C104.189 66.6923 104.063 66.9893 103.978 67.3287C103.725 68.262 103.809 68.3469 104.78 68.4742C105.244 68.3893 105.708 68.3045 106.172 68.1348C106.383 68.0923 106.552 67.9226 106.637 67.7529C106.848 67.3711 106.721 66.862 106.341 66.6923Z" fill="#131413"/>
<path d="M123.221 93.8447C122.883 93.6325 122.503 93.4204 122.081 93.2507L122.039 93.2083C121.744 93.081 121.406 93.2507 121.28 93.5477C121.111 93.8447 120.984 94.1416 120.9 94.481C120.647 95.4144 120.731 95.4993 121.702 95.6265C122.166 95.5417 122.63 95.4568 123.094 95.2871C123.305 95.2447 123.474 95.075 123.558 94.9053C123.769 94.5235 123.643 94.0568 123.221 93.8447Z" fill="#131413"/>
<path d="M92.2889 91.2564C91.9935 91.0443 91.6559 90.8746 91.3183 90.7473C91.2761 90.7473 91.2761 90.7049 91.2339 90.7049C90.9807 90.62 90.6853 90.7473 90.6009 91.0019C90.4321 91.3837 90.3055 91.8079 90.2211 92.2322C90.1789 92.4867 90.3055 92.6564 90.5587 92.6564C90.6853 92.6564 90.8541 92.6989 90.9807 92.6989V92.7413C91.3605 92.6989 91.7825 92.614 92.1623 92.4867C92.3311 92.4443 92.4998 92.317 92.5842 92.1473C92.753 91.8504 92.6264 91.4261 92.2889 91.2564Z" fill="#131413"/>
<path d="M98.7453 73.6502C98.3655 73.8199 98.0279 74.032 97.7325 74.329C97.6059 74.4987 97.5637 74.7108 97.6481 74.9229C97.9013 75.3047 98.1967 75.6441 98.5343 75.9411C98.6609 75.9835 98.8297 75.9835 98.9563 75.8987C99.2517 75.432 99.5048 74.9229 99.6736 74.6684C99.758 73.7774 99.3361 73.3956 98.7453 73.6502Z" fill="#131413"/>
<path d="M124.318 71.7409C123.938 71.9106 123.601 72.1227 123.305 72.4197C123.179 72.5894 123.136 72.8015 123.221 73.0136C123.474 73.3955 123.769 73.7349 124.107 74.0318C124.233 74.0743 124.402 74.0743 124.529 73.9894C124.824 73.5227 125.077 73.0136 125.246 72.7591C125.331 71.8682 124.866 71.5288 124.318 71.7409Z" fill="#131413"/>
<path d="M140.016 69.8317C139.636 70.0014 139.298 70.2135 139.003 70.5105C138.876 70.6802 138.834 70.8923 138.919 71.1045C139.172 71.4863 139.467 71.8257 139.805 72.1227C139.931 72.1651 140.1 72.1651 140.227 72.0802C140.522 71.6135 140.775 71.1045 140.944 70.8499C141.029 69.959 140.607 69.6196 140.016 69.8317Z" fill="#131413"/>
<path d="M92.7532 66.6498C92.4156 66.5649 92.078 66.5649 91.7404 66.5649C90.7698 66.5649 90.7276 66.6922 90.8964 67.6256C91.1074 68.0498 91.3184 68.4741 91.5716 68.8559C91.6982 69.0256 91.867 69.1529 92.078 69.1953C92.5 69.2802 92.922 68.9832 93.0064 68.5589C93.133 68.1347 93.2174 67.7528 93.2596 67.3286C93.2596 67.2862 93.2596 67.2862 93.2596 67.2437C93.3018 66.9892 93.0908 66.6922 92.7532 66.6498Z" fill="#131413"/>
<path d="M87.3939 74.711C88.2378 74.5413 88.491 73.9897 88.1112 73.5231C87.8581 73.2261 87.5627 72.9291 87.1829 72.717C86.9719 72.6321 86.7609 72.6746 86.5921 72.8018C86.2967 73.1412 86.0435 73.5655 85.8325 73.9473C85.8325 74.117 85.8747 74.2443 86.0013 74.3291C86.5499 74.5413 87.0985 74.6261 87.3939 74.711Z" fill="#131413"/>
<path d="M173.1 48.789C172.762 48.5769 172.382 48.3647 171.96 48.195C171.96 48.195 171.918 48.1526 171.876 48.1526C171.581 48.0253 171.243 48.195 171.116 48.492C170.948 48.789 170.821 49.086 170.737 49.4254C170.483 50.3587 170.568 50.4436 171.538 50.5708C172.003 50.486 172.467 50.4011 172.931 50.2314C173.142 50.189 173.311 50.0193 173.395 49.8496C173.648 49.4254 173.48 48.9587 173.1 48.789Z" fill="#131413"/>
<path d="M176.94 54.9829C177.151 54.6011 176.982 54.1344 176.602 53.9223C176.265 53.7102 175.885 53.498 175.463 53.3283L175.421 53.2859C175.126 53.1586 174.788 53.3283 174.661 53.6253C174.493 53.9223 174.366 54.2193 174.282 54.5587C174.028 55.492 174.113 55.5769 175.083 55.7042C175.547 55.6193 176.012 55.5345 176.476 55.3648C176.687 55.3223 176.856 55.1526 176.94 54.9829Z" fill="#131413"/>
<path d="M168.289 65.8442C167.951 65.632 167.572 65.4199 167.15 65.2502C167.15 65.2502 167.107 65.2078 167.065 65.2078C166.77 65.0805 166.432 65.2502 166.306 65.5472C166.137 65.8442 166.01 66.1412 165.926 66.4806C165.673 67.4139 165.757 67.4988 166.728 67.626C167.192 67.5412 167.656 67.4563 168.12 67.2866C168.331 67.2442 168.5 67.0745 168.584 66.9048C168.838 66.523 168.669 66.0563 168.289 65.8442Z" fill="#131413"/>
<path d="M154.152 70.7231C153.815 70.511 153.435 70.2988 153.013 70.1291C153.013 70.1291 152.971 70.0867 152.929 70.0867C152.633 69.9594 152.296 70.1291 152.169 70.4261C152 70.7231 151.874 71.0201 151.789 71.3595C151.536 72.2928 151.621 72.3777 152.591 72.505C153.055 72.4201 153.52 72.3353 153.984 72.1656C154.195 72.1231 154.363 71.9534 154.448 71.7837C154.701 71.4019 154.532 70.9352 154.152 70.7231Z" fill="#131413"/>
<path d="M166.474 80.9472C166.137 80.7351 165.757 80.5229 165.335 80.3532C165.335 80.3532 165.293 80.3108 165.251 80.3108C164.955 80.1835 164.618 80.3532 164.491 80.6502C164.322 80.9472 164.196 81.2442 164.111 81.5836C163.858 82.517 163.943 82.6018 164.913 82.7291C165.377 82.6442 165.841 82.5594 166.306 82.3897C166.517 82.3472 166.685 82.1775 166.77 82.0078C167.023 81.626 166.896 81.1593 166.474 80.9472Z" fill="#131413"/>
<path d="M187.574 4.03043C187.869 3.56375 188.123 3.05465 188.291 2.8001C188.334 1.90917 187.912 1.56977 187.363 1.78189C186.983 1.95159 186.646 2.16372 186.35 2.4607C186.224 2.6304 186.181 2.84252 186.266 3.05465C186.519 3.43648 186.814 3.77588 187.152 4.07286C187.279 4.11528 187.447 4.11528 187.574 4.03043Z" fill="#131413"/>
<path d="M176.476 31.9888C176.687 32.4131 176.898 32.8373 177.151 33.2191C177.277 33.3888 177.446 33.5161 177.657 33.5585C178.079 33.6434 178.501 33.3464 178.586 32.9222C178.712 32.4979 178.797 32.1161 178.839 31.6918C178.839 31.6494 178.839 31.6494 178.839 31.607C178.881 31.2676 178.628 31.013 178.332 30.9706C177.995 30.8857 177.657 30.8857 177.32 30.8857C176.391 30.9282 176.307 31.013 176.476 31.9888Z" fill="#131413"/>
<path d="M184.493 27.1098C184.156 27.0249 183.818 27.0249 183.481 27.0249C182.51 27.0249 182.468 27.1522 182.637 28.0855C182.848 28.5098 183.059 28.934 183.312 29.3159C183.439 29.4856 183.607 29.6129 183.818 29.6553C184.24 29.7401 184.662 29.4432 184.747 29.0189C184.873 28.5946 184.958 28.2128 185 27.7886C185 27.7461 185 27.7461 185 27.7037C185.042 27.4067 184.789 27.1098 184.493 27.1098Z" fill="#131413"/>
<path d="M181.708 16.2914C182.13 16.3763 182.552 16.0793 182.637 15.6551C182.763 15.2308 182.848 14.849 182.89 14.4247C182.89 14.3823 182.89 14.3823 182.89 14.3399C182.932 14.0005 182.679 13.7459 182.384 13.7035C182.046 13.6187 181.708 13.6187 181.371 13.6187C180.4 13.6187 180.358 13.7459 180.527 14.6793C180.738 15.1035 180.949 15.5278 181.202 15.9096C181.329 16.1217 181.497 16.249 181.708 16.2914Z" fill="#131413"/>
<path d="M189.262 11.8365C189.304 11.4971 189.051 11.2425 188.756 11.2001C188.418 11.1152 188.08 11.1152 187.743 11.1152C186.772 11.1152 186.73 11.2425 186.899 12.1759C187.11 12.6001 187.321 13.0244 187.574 13.4062C187.701 13.5759 187.869 13.7032 188.08 13.7456C188.502 13.8304 188.924 13.5335 189.009 13.1092C189.135 12.685 189.22 12.3031 189.262 11.8789C189.262 11.8789 189.262 11.8789 189.262 11.8365Z" fill="#131413"/>
<path d="M182.299 40.8132C182.088 40.7283 181.877 40.7708 181.708 40.898C181.413 41.2374 181.16 41.6617 180.949 42.0435C180.949 42.2132 180.991 42.3405 181.117 42.4253C181.624 42.595 182.172 42.6799 182.51 42.7647C183.354 42.595 183.607 42.0435 183.227 41.5768C182.974 41.2799 182.637 41.0253 182.299 40.8132Z" fill="#131413"/>
<path d="M79.2917 79.2927C79.0807 79.2078 78.8697 79.2503 78.7009 79.3775C78.4055 79.7169 78.1523 80.1412 77.9413 80.523C77.9413 80.6927 77.9835 80.82 78.1101 80.9048C78.6165 81.0745 79.1651 81.1594 79.5027 81.2442C80.3467 81.0745 80.5999 80.523 80.2201 80.0563C79.9247 79.7594 79.6293 79.5048 79.2917 79.2927Z" fill="#131413"/>
<path d="M87.4784 82.3898C87.2674 82.305 87.0564 82.3474 86.8876 82.4747C86.5922 82.8141 86.339 83.2383 86.128 83.6202C86.128 83.7899 86.1702 83.9171 86.2968 84.002C86.8032 84.1717 87.3518 84.2565 87.6893 84.3414C88.5333 84.1717 88.7865 83.6202 88.4067 83.1535C88.1535 82.8989 87.8581 82.602 87.4784 82.3898Z" fill="#131413"/>
<path d="M97.9013 82.8991C97.6059 82.8142 97.3105 82.687 97.0151 82.6445C96.8885 82.7718 96.5932 82.8567 96.551 83.0264C96.4666 83.3658 96.4244 83.7476 96.4666 84.087C96.4666 84.1718 96.6776 84.3839 96.762 84.3839C97.2261 84.2991 97.6481 84.1294 98.0701 83.9173C98.1967 83.8324 98.2811 83.7052 98.3233 83.5779C98.3655 83.2385 98.1967 82.9415 97.9013 82.8991Z" fill="#131413"/>
<path d="M112.798 79.8869C112.502 79.802 112.207 79.6747 111.911 79.6323C111.785 79.7596 111.489 79.8445 111.447 80.0142C111.363 80.3536 111.321 80.7354 111.363 81.0748C111.363 81.1596 111.574 81.3718 111.658 81.3718C112.122 81.2869 112.544 81.1172 112.966 80.9051C113.093 80.8202 113.177 80.693 113.22 80.5657C113.262 80.2687 113.093 79.9717 112.798 79.8869Z" fill="#131413"/>
<path d="M129.339 86.7169C129.044 86.6321 128.749 86.5048 128.453 86.4624C128.327 86.5897 128.031 86.6745 127.989 86.8442C127.905 87.1836 127.863 87.5654 127.905 87.9048C127.905 87.9897 128.116 88.2018 128.2 88.2018C128.664 88.1169 129.086 87.9473 129.508 87.7351C129.635 87.6503 129.719 87.523 129.761 87.3957C129.804 87.0988 129.635 86.8018 129.339 86.7169Z" fill="#131413"/>
<path d="M117.102 65.7165C116.807 65.6316 116.511 65.5043 116.216 65.4619C116.089 65.5892 115.794 65.674 115.752 65.8437C115.667 66.1831 115.625 66.565 115.667 66.9044C115.667 66.9892 115.878 67.2013 115.963 67.2013C116.427 67.1165 116.849 66.9468 117.271 66.7347C117.397 66.6498 117.482 66.5225 117.524 66.3953C117.566 66.0983 117.397 65.8013 117.102 65.7165Z" fill="#131413"/>
<path d="M78.1101 93.5475C77.8147 93.4627 77.5193 93.3354 77.2239 93.293C77.0973 93.4202 76.8019 93.5051 76.7597 93.6748C76.6753 94.0142 76.6331 94.396 76.6753 94.7354C76.6753 94.8203 76.8863 95.0324 76.9707 95.0324C77.4349 94.9476 77.8569 94.7779 78.2789 94.5657C78.4055 94.4809 78.4899 94.3536 78.5321 94.2263C78.5743 93.8869 78.3633 93.5899 78.1101 93.5475Z" fill="#131413"/>
<path d="M76.802 70.5106C77.4349 70.1712 77.9413 69.5772 78.1945 68.8984C78.3633 68.3045 78.0679 67.8802 77.3927 67.7529C76.8864 67.8802 76.4222 68.0499 75.958 68.262C75.747 68.3893 75.6626 68.6014 75.6626 68.856C75.8314 69.4075 76.0846 69.9166 76.3378 70.4257C76.4644 70.553 76.6332 70.553 76.802 70.5106Z" fill="#131413"/>
<path d="M76.4222 59.9468C76.6332 59.565 76.4644 59.0983 76.0846 58.8862C75.747 58.674 75.3672 58.4619 74.9452 58.2922L74.903 58.2498C74.6076 58.1225 74.27 58.2922 74.1434 58.5892C73.9746 58.8862 73.848 59.1831 73.7636 59.5226C73.5104 60.4559 73.5948 60.5408 74.5654 60.668C75.0296 60.5832 75.4938 60.4983 75.958 60.3286C76.1268 60.2862 76.2956 60.1165 76.4222 59.9468Z" fill="#131413"/>
<path d="M143.139 101.396C142.801 101.184 142.421 100.972 141.999 100.802L141.957 100.76C141.662 100.633 141.324 100.802 141.197 101.099C141.029 101.396 140.902 101.693 140.818 102.033C140.565 102.966 140.649 103.051 141.619 103.178C142.084 103.093 142.548 103.009 143.012 102.839C143.223 102.796 143.392 102.627 143.476 102.457C143.687 102.075 143.56 101.609 143.139 101.396Z" fill="#131413"/>
<path d="M152.633 117.136C152.296 116.924 151.916 116.712 151.494 116.542L151.452 116.5C151.156 116.373 150.819 116.542 150.692 116.839C150.523 117.136 150.397 117.476 150.312 117.773C150.059 118.706 150.144 118.791 151.114 118.918C151.578 118.833 152.042 118.748 152.507 118.579C152.718 118.536 152.886 118.366 152.971 118.197C153.182 117.815 153.055 117.348 152.633 117.136Z" fill="#131413"/>
<path d="M164.153 116.797C163.816 116.585 163.436 116.373 163.014 116.203C163.014 116.203 162.972 116.16 162.93 116.16C162.634 116.033 162.297 116.203 162.17 116.5C162.001 116.797 161.875 117.094 161.79 117.433C161.537 118.367 161.622 118.451 162.592 118.579C163.056 118.494 163.521 118.409 163.985 118.239C164.196 118.197 164.364 118.027 164.449 117.857C164.702 117.476 164.533 117.009 164.153 116.797Z" fill="#131413"/>
<path d="M178.965 124.179C178.628 123.967 178.248 123.754 177.826 123.585C177.826 123.585 177.784 123.542 177.742 123.542C177.446 123.415 177.109 123.585 176.982 123.882C176.813 124.179 176.687 124.476 176.602 124.815C176.349 125.748 176.434 125.833 177.404 125.961C177.868 125.876 178.332 125.791 178.797 125.621C179.008 125.579 179.176 125.409 179.261 125.239C179.514 124.857 179.345 124.348 178.965 124.179Z" fill="#131413"/>
<path d="M191.583 130.372C191.245 130.16 190.865 129.948 190.444 129.779L190.401 129.736C190.106 129.609 189.768 129.779 189.642 130.076C189.473 130.372 189.346 130.669 189.262 131.009C189.009 131.942 189.093 132.027 190.064 132.154C190.528 132.069 190.992 131.985 191.456 131.815C191.667 131.772 191.836 131.603 191.92 131.433C192.131 131.051 191.963 130.585 191.583 130.372Z" fill="#131413"/>
<path d="M195.212 140.088C194.874 139.876 194.495 139.664 194.073 139.494L194.03 139.452C193.735 139.325 193.397 139.494 193.271 139.791C193.102 140.088 192.975 140.385 192.891 140.725C192.638 141.658 192.722 141.743 193.693 141.87C194.157 141.785 194.621 141.7 195.085 141.531C195.296 141.488 195.465 141.319 195.549 141.149C195.76 140.767 195.592 140.3 195.212 140.088Z" fill="#131413"/>
<path d="M202.512 145.815C202.175 145.603 201.795 145.391 201.373 145.221C201.373 145.221 201.331 145.179 201.289 145.179C200.993 145.052 200.656 145.221 200.529 145.518C200.36 145.815 200.234 146.112 200.149 146.452C199.896 147.385 199.98 147.47 200.951 147.597C201.415 147.512 201.879 147.428 202.344 147.258C202.555 147.215 202.723 147.046 202.808 146.876C203.019 146.494 202.892 146.028 202.512 145.815Z" fill="#131413"/>
<path d="M161.073 103.772C160.736 103.56 160.356 103.348 159.934 103.178C159.934 103.178 159.892 103.136 159.849 103.136C159.554 103.008 159.216 103.178 159.09 103.475C158.921 103.772 158.794 104.069 158.71 104.408C158.457 105.342 158.541 105.426 159.512 105.554C159.976 105.469 160.44 105.384 160.904 105.214C161.115 105.172 161.284 105.002 161.369 104.833C161.622 104.451 161.453 103.984 161.073 103.772Z" fill="#131413"/>
<path d="M84.9042 61.0922C84.5666 60.8801 84.1868 60.668 83.7648 60.4983L83.7226 60.4558C83.4272 60.3286 83.0896 60.4983 82.963 60.7952C82.7942 61.0922 82.6676 61.3892 82.5832 61.7286C82.33 62.6619 82.4144 62.7468 83.385 62.8741C83.8492 62.7892 84.3134 62.7044 84.7776 62.5347C84.9886 62.4922 85.1574 62.3225 85.2417 62.1528C85.4527 61.771 85.2839 61.3043 84.9042 61.0922Z" fill="#131413"/>
<path d="M71.0207 75.5169C71.1895 75.1775 71.0629 74.7533 70.7675 74.5836C70.4721 74.3714 70.1345 74.2017 69.7969 74.0745C69.7547 74.0745 69.7547 74.032 69.7125 74.032C69.4593 73.9472 69.1639 74.0745 69.0795 74.329C68.9107 74.7108 68.7841 75.1351 68.6997 75.5593C68.6575 75.8139 68.7841 75.9836 69.0373 75.9836C69.1639 75.9836 69.3327 76.026 69.4593 76.026V76.0684C69.8391 76.026 70.2611 75.9412 70.6409 75.8139C70.7675 75.8139 70.9363 75.6866 71.0207 75.5169Z" fill="#131413"/>
<path d="M72.8774 86.9293C72.582 86.7171 72.2444 86.5474 71.9069 86.4202C71.8647 86.4202 71.8647 86.3777 71.8225 86.3777C71.5693 86.2929 71.2739 86.4202 71.1895 86.6747C71.0207 87.0565 70.8941 87.4808 70.8097 87.905C70.7675 88.1596 70.8941 88.3293 71.1473 88.3293C71.2739 88.3293 71.4427 88.3717 71.5693 88.3717V88.4141C71.9491 88.3717 72.371 88.2868 72.7508 88.1596C72.9196 88.1171 73.0884 87.9899 73.1728 87.8202C73.3416 87.5656 73.215 87.1414 72.8774 86.9293Z" fill="#131413"/>
<path d="M69.2484 66.2257C69.5438 65.7591 69.797 65.25 69.9658 64.9954C70.008 64.1045 69.586 63.7651 69.0374 63.9772C68.6577 64.1469 68.3201 64.359 68.0247 64.656C67.8981 64.8257 67.8559 65.0378 67.9403 65.25C68.1935 65.6318 68.4889 65.9712 68.8265 66.2682C68.9952 66.353 69.1218 66.3106 69.2484 66.2257Z" fill="#131413"/>
<path d="M65.7458 55.8314C65.4082 55.7466 65.0706 55.7466 64.733 55.7466C63.7624 55.7466 63.7202 55.8739 63.889 56.8072C64.1 57.2315 64.311 57.6557 64.5642 58.0375C64.6908 58.2072 64.8596 58.3345 65.0706 58.3769C65.4926 58.4618 65.9146 58.1648 65.999 57.7406C66.1256 57.3163 66.21 56.9345 66.2522 56.5102C66.2522 56.4678 66.2522 56.4678 66.2522 56.4254C66.2944 56.1708 66.0412 55.8739 65.7458 55.8314Z" fill="#131413"/>
<path d="M59.5425 64.3589C59.5425 64.5286 59.5847 64.6559 59.7113 64.7407C60.2177 64.9104 60.7663 64.9953 61.1039 65.0801C61.9479 64.9104 62.2011 64.3589 61.8213 63.8922C61.5681 63.5952 61.2727 63.2983 60.8929 63.0861C60.6819 63.0013 60.4709 63.0437 60.3021 63.171C60.0067 63.5952 59.7535 63.9771 59.5425 64.3589Z" fill="#131413"/>
<path d="M62.3277 69.7897C62.0323 69.7049 61.7369 69.5776 61.4415 69.5352C61.3149 69.6624 61.0196 69.7473 60.9774 69.917C60.893 70.2564 60.8508 70.6382 60.893 70.9776C60.893 71.0625 61.104 71.2746 61.1883 71.2746C61.6525 71.1897 62.0745 71.02 62.4965 70.8079C62.6231 70.7231 62.7075 70.5958 62.7497 70.4685C62.7919 70.1291 62.6231 69.8321 62.3277 69.7897Z" fill="#131413"/>
<path d="M61.2729 75.8986C60.9775 75.8137 60.6821 75.6865 60.3867 75.644C60.2601 75.7713 59.9647 75.8562 59.9225 76.0259C59.8381 76.3653 59.7959 76.7471 59.8381 77.0865C59.8381 77.1713 60.0491 77.3835 60.1335 77.3835C60.5977 77.2986 61.0197 77.1289 61.4417 76.9168C61.5683 76.8319 61.6526 76.7047 61.6948 76.5774C61.737 76.238 61.526 75.941 61.2729 75.8986Z" fill="#131413"/>
<path d="M51.3983 85.1898C50.9763 84.8928 50.5543 84.5958 50.1323 84.3413C49.9213 84.2564 49.6681 84.2988 49.4571 84.4685C49.1195 84.9352 48.8664 85.4443 48.6132 85.9534C48.6132 86.1231 48.6976 86.2928 48.8242 86.3777C49.4993 86.6746 50.2589 86.7171 50.9341 86.5049C51.5671 86.2928 51.6937 85.7837 51.3983 85.1898Z" fill="#131413"/>
<path d="M29.2016 82.22C28.7796 81.9231 28.3576 81.6261 27.9356 81.3715C27.7246 81.2867 27.4714 81.3291 27.2604 81.4988C26.9228 81.9655 26.6696 82.4746 26.4164 82.9837C26.4164 83.1534 26.5008 83.3231 26.6274 83.4079C27.3026 83.7049 28.0622 83.7473 28.7374 83.5352C29.3704 83.3231 29.497 82.814 29.2016 82.22Z" fill="#131413"/>
<path d="M20.0444 87.0987C20.6352 86.8866 20.7618 86.3775 20.4664 85.7835C20.0444 85.4865 19.6224 85.1896 19.2004 84.935C18.9894 84.8502 18.7362 84.8926 18.5253 85.0623C18.1877 85.529 17.9345 86.0381 17.6813 86.5472C17.6813 86.7169 17.7657 86.8866 17.8923 86.9714C18.6097 87.2684 19.3692 87.3108 20.0444 87.0987Z" fill="#131413"/>
<path d="M21.4371 96.3055C21.0151 96.0085 20.5931 95.7115 20.1711 95.457C19.9601 95.3721 19.7069 95.4146 19.496 95.5843C19.1584 96.0509 18.9052 96.56 18.652 97.0691C18.652 97.2388 18.7364 97.4086 18.863 97.4934C19.5382 97.7904 20.2977 97.8328 20.9729 97.6207C21.5637 97.4086 21.7325 96.8994 21.4371 96.3055Z" fill="#131413"/>
<path d="M25.9101 97.493C25.4881 97.196 25.0661 96.899 24.6441 96.6445C24.4331 96.5596 24.1799 96.6021 23.9689 96.7718C23.6313 97.2384 23.3781 97.7475 23.1249 98.2566C23.1249 98.4263 23.2093 98.596 23.3359 98.6809C24.0111 98.9779 24.7707 99.0203 25.4459 98.8081C26.0367 98.596 26.2055 98.0869 25.9101 97.493Z" fill="#131413"/>
<path d="M53.5082 77.5958C53.5082 77.5534 53.5082 77.5534 53.5082 77.511C53.4238 77.214 53.1284 77.0019 52.7909 77.0867C52.4533 77.1291 52.1579 77.2564 51.8203 77.3837C50.9341 77.7231 50.8919 77.8504 51.3983 78.6989C51.7359 79.0383 52.1157 79.3353 52.4955 79.5898C52.6643 79.7171 52.8753 79.7595 53.0862 79.7171C53.5082 79.6322 53.8036 79.208 53.7192 78.7837C53.7192 78.4019 53.6348 77.9777 53.5082 77.5958Z" fill="#131413"/>
<path d="M44.7309 80.2261C44.7309 80.1837 44.7309 80.1413 44.6887 80.1413C44.6043 79.8867 44.3089 79.717 44.0557 79.8019C43.6337 79.9291 43.2117 80.0564 42.8319 80.2261C42.7897 80.2261 42.7475 80.2685 42.7475 80.2685C42.6209 80.3958 42.5787 80.6079 42.7053 80.7352C42.7897 80.8625 42.8741 80.9898 42.9163 81.0746L42.8741 81.117C43.1695 81.414 43.4649 81.6686 43.8025 81.8807C43.9291 82.008 44.1401 82.0504 44.3089 82.008C44.6887 81.9655 44.9419 81.6261 44.8997 81.2443C44.8997 80.9473 44.8575 80.5655 44.7309 80.2261Z" fill="#131413"/>
<path d="M47.6425 75.5591C47.3049 75.347 46.9251 75.2197 46.5031 75.1772C46.2921 75.1772 46.0811 75.3045 45.9967 75.4742C45.8701 75.8985 45.7435 76.3652 45.7435 76.8319C45.7435 76.9167 45.9545 77.1713 46.0389 77.1288C46.5875 77.0864 47.1361 77.0016 47.4315 76.9591C48.1489 76.45 48.1489 75.8561 47.6425 75.5591Z" fill="#131413"/>
<path d="M51.3561 69.0684C51.1451 69.4926 50.9341 69.9169 50.7653 70.3835C50.6809 70.5957 50.6809 70.8078 50.8075 71.0199C51.0185 71.4017 51.4827 71.5714 51.8625 71.4017C52.2423 71.232 52.6221 71.0623 53.0018 70.8502C53.0018 70.8502 53.044 70.8502 53.044 70.8078C53.3394 70.6381 53.4238 70.2987 53.255 70.0017C53.1284 69.7047 52.9175 69.4078 52.7065 69.1532C52.1579 68.3471 52.0313 68.3471 51.3561 69.0684Z" fill="#131413"/>
<path d="M44.6465 68.729C44.1823 68.729 43.7181 68.729 43.2961 68.8139C43.1695 68.8987 43.0851 69.026 43.0851 69.1957C43.2961 69.7048 43.5071 70.2139 43.6337 70.5109C44.3089 71.0624 44.8575 70.9351 44.9841 70.3412C45.0685 69.9593 45.1107 69.5351 45.0685 69.1533C45.0263 68.9411 44.8575 68.7714 44.6465 68.729Z" fill="#131413"/>
<path d="M51.2294 62.7896C50.7652 62.7896 50.301 62.7895 49.879 62.8744C49.7524 62.9592 49.668 63.0865 49.668 63.2562C49.879 63.7653 50.09 64.2744 50.2166 64.5714C50.8918 65.1229 51.4404 64.9956 51.567 64.4017C51.6514 64.0199 51.6936 63.5956 51.6514 63.2138C51.6092 63.0017 51.4404 62.832 51.2294 62.7896Z" fill="#131413"/>
<path d="M32.0712 53.7954C31.5648 53.9227 31.1006 54.0924 30.6364 54.3045C30.4254 54.4318 30.341 54.6439 30.341 54.8985C30.5098 55.45 30.763 55.9591 31.0162 56.4682C31.1428 56.5955 31.3116 56.6379 31.4804 56.5531C32.1134 56.2137 32.6197 55.6197 32.8729 54.9409C33.0417 54.3045 32.7463 53.8803 32.0712 53.7954Z" fill="#131413"/>
<path d="M23.336 58.0377C23.4626 58.0377 23.6314 58.0802 23.758 58.0802V58.1226C24.1378 58.0802 24.5598 57.9953 24.9396 57.868C25.1084 57.8256 25.2772 57.6983 25.3616 57.5286C25.5304 57.1892 25.4038 56.765 25.1084 56.5953C24.813 56.3832 24.4754 56.2135 24.1378 56.0862C24.0956 56.0862 24.0956 56.0438 24.0534 56.0438C23.8002 55.9589 23.5048 56.0862 23.4204 56.3407C23.2516 56.7226 23.125 57.1468 23.0406 57.5711C22.9562 57.8256 23.0828 57.9953 23.336 58.0377Z" fill="#131413"/>
<path d="M14.7274 63.0015C14.432 62.7894 14.0944 62.6197 13.7568 62.4924C13.7146 62.4924 13.7146 62.45 13.6724 62.45C13.4192 62.3652 13.1238 62.4924 13.0394 62.747C12.8706 63.1288 12.744 63.5531 12.6596 63.9773C12.6174 64.2319 12.744 64.4016 12.9972 64.4016C13.1238 64.4016 13.2926 64.444 13.4192 64.444V64.4864C13.799 64.444 14.221 64.3591 14.6008 64.2319C14.7696 64.1894 14.9383 64.0622 15.0227 63.8925C15.1915 63.5955 15.0649 63.1712 14.7274 63.0015Z" fill="#131413"/>
<path d="M23.2094 46.3284C23.3782 45.989 23.2516 45.5648 22.9562 45.3951C22.6608 45.183 22.3233 45.0133 21.9857 44.886C21.9435 44.886 21.9435 44.8436 21.9013 44.8436C21.6481 44.7587 21.3527 44.886 21.2683 45.1405C21.0995 45.5224 20.9729 45.9466 20.8885 46.3709C20.8463 46.6254 20.9729 46.7951 21.2261 46.7951C21.3527 46.7951 21.5215 46.8375 21.6481 46.8375V46.88C22.0279 46.8375 22.4498 46.7527 22.8296 46.6254C22.9562 46.583 23.125 46.4557 23.2094 46.3284Z" fill="#131413"/>
<path d="M29.1173 49.1285C28.8219 48.9164 28.4843 48.7467 28.1467 48.6194C28.1045 48.6194 28.1045 48.577 28.0623 48.577C27.8091 48.4921 27.5137 48.6194 27.4293 48.8739C27.2605 49.2558 27.1339 49.68 27.0495 50.1043C27.0073 50.3588 27.1339 50.5285 27.3871 50.5285C27.5137 50.5285 27.6825 50.571 27.8091 50.571V50.6134C28.1889 50.571 28.6109 50.4861 28.9907 50.3588C29.1595 50.3164 29.3282 50.1891 29.4126 50.0194C29.5814 49.7224 29.4548 49.2982 29.1173 49.1285Z" fill="#131413"/>
<path d="M66.1255 47.0494C65.8302 46.8373 65.4926 46.6676 65.155 46.5403C65.1128 46.5403 65.1128 46.4979 65.0706 46.4979C64.8174 46.413 64.522 46.5403 64.4376 46.7948C64.2688 47.1767 64.1422 47.6009 64.0578 48.0252C64.0156 48.2797 64.1422 48.4494 64.3954 48.4494C64.522 48.4494 64.6908 48.4919 64.8174 48.4919V48.5343C65.1972 48.4919 65.6192 48.407 65.9989 48.2797C66.1677 48.2373 66.3365 48.11 66.4209 47.9403C66.5475 47.6434 66.4209 47.2615 66.1255 47.0494Z" fill="#131413"/>
<path d="M58.6986 52.4801V52.5225C59.0784 52.4801 59.5004 52.3952 59.8801 52.2679C60.0489 52.2255 60.2177 52.0982 60.3021 51.9285C60.4709 51.5891 60.3443 51.1649 60.0489 50.9952C59.7535 50.7831 59.416 50.6134 59.0784 50.4861C59.0362 50.4861 59.0362 50.4437 58.994 50.4437C58.7408 50.3588 58.4454 50.4861 58.361 50.7406C58.1922 51.1225 58.0656 51.5467 57.9812 51.971C57.939 52.2255 58.0656 52.3952 58.3188 52.3952C58.4032 52.4377 58.572 52.4376 58.6986 52.4801Z" fill="#131413"/>
<path d="M12.744 57.6559C12.8706 57.3589 12.744 57.0195 12.4486 56.8922C12.1954 56.8074 11.9422 56.7225 11.689 56.6377C11.5624 56.765 11.3514 56.8498 11.3093 57.0195C11.2249 57.3589 11.2249 57.7408 11.2249 58.0802C11.2249 58.165 11.3936 58.3771 11.4358 58.3771C11.8156 58.2923 12.1954 58.1226 12.533 57.9105C12.6596 57.8256 12.7018 57.7408 12.744 57.6559Z" fill="#131413"/>
<path d="M27.5137 62.7467C28.1889 63.2982 28.7374 63.1709 28.864 62.577C28.9484 62.1952 28.9906 61.7709 28.9484 61.3891C28.9062 61.177 28.7374 61.0073 28.5264 60.9648C28.0623 60.9648 27.5981 60.9648 27.1761 61.0497C27.0495 61.1345 26.9651 61.2618 26.9651 61.4315C27.1339 61.983 27.3871 62.4921 27.5137 62.7467Z" fill="#131413"/>
<path d="M37.5992 84.0443C37.4304 84.0018 37.1772 83.8321 37.0084 83.917C36.6708 84.0443 36.3755 84.2564 36.1223 84.5109C36.0379 84.5534 35.9957 84.8503 36.0801 84.8928C36.4177 85.1897 36.8396 85.4443 37.2616 85.6564C37.7258 85.8261 38.0634 85.4443 37.9368 84.9352C37.8524 84.6382 37.7258 84.3412 37.5992 84.0443Z" fill="#131413"/>
<path d="M24.9396 88.796C24.8552 88.499 24.7286 88.2021 24.602 87.9051C24.4332 87.8627 24.18 87.693 24.0112 87.7778C23.6736 87.9051 23.3782 88.1172 23.125 88.3718C23.0406 88.4142 22.9984 88.7112 23.0828 88.7536C23.4204 89.0506 23.8424 89.3051 24.2644 89.5172C24.6864 89.6869 25.0662 89.2627 24.9396 88.796Z" fill="#131413"/>
<path d="M59.7959 87.2689C59.6271 87.2264 59.374 87.0567 59.2052 87.1416C58.8676 87.2689 58.5722 87.481 58.319 87.7356C58.2346 87.778 58.1924 88.075 58.2768 88.1174C58.6144 88.4144 59.0364 88.6689 59.4584 88.8811C59.9225 89.0508 60.2601 88.6689 60.1335 88.1598C60.0069 87.8204 59.9225 87.5234 59.7959 87.2689Z" fill="#131413"/>
<path d="M1.64582 92.4444C1.35043 92.8687 1.05504 93.293 0.801842 93.7172C0.717445 93.9293 0.759644 94.1839 0.928439 94.396C1.39263 94.7354 1.89901 94.99 2.4054 95.2445C2.57419 95.2445 2.74299 95.1597 2.82739 95.0324C3.12278 94.3536 3.16498 93.5899 2.95398 92.9111C2.74299 92.2747 2.2366 92.1475 1.64582 92.4444Z" fill="#131413"/>
<path d="M9.57911 91.172C9.28372 91.5962 8.98832 92.0205 8.73513 92.4447C8.65073 92.6569 8.69293 92.9114 8.86173 93.1235C9.32592 93.4629 9.8323 93.7175 10.3387 93.972C10.5075 93.972 10.6763 93.8872 10.7607 93.7599C11.0561 93.0811 11.0983 92.3175 10.8873 91.6387C10.6763 91.0023 10.1699 90.875 9.57911 91.172Z" fill="#131413"/>
<path d="M13.3348 85.5292C13.0395 85.9535 12.7441 86.3777 12.4909 86.802C12.4065 87.0141 12.4487 87.2686 12.6175 87.4808C13.0817 87.8202 13.588 88.0747 14.0944 88.3293C14.2632 88.3293 14.432 88.2444 14.5164 88.1171C14.8118 87.4383 14.854 86.6747 14.643 85.9959C14.432 85.3595 13.9256 85.1898 13.3348 85.5292Z" fill="#131413"/>
<path d="M135.416 82.2624L163.9 89.5596L163.816 88.9232C163.774 88.5838 163.732 88.2868 163.689 87.9898C163.605 87.4383 163.563 87.014 163.563 86.5898C163.563 84.8928 162.761 83.8322 160.946 83.2382C158.626 82.4745 156.262 81.5412 153.984 80.6927C153.097 80.3533 152.169 80.0139 151.283 79.6745L147.78 78.3593L218.632 98.5537L219.012 98.681L219.392 97.6628L161.579 75.0501C161.706 74.8804 161.875 74.7532 162.001 74.5835C162.55 73.9895 163.056 73.438 163.563 72.9289C168.205 68.3894 172.425 63.4256 176.18 58.1225C180.105 52.5648 182.426 47.9404 183.649 43.1464C185.675 35.3401 186.646 28.7218 186.73 22.4004C186.772 19.0489 187.827 15.867 189.811 13.1518C190.612 12.0487 191.456 10.9032 192.258 9.84259C193.102 8.73953 193.988 7.55163 194.79 6.40614C195.676 5.17581 195.929 3.94548 195.592 2.92728C195.212 1.86665 194.241 1.06057 192.764 0.59389C190.19 -0.424315 187.279 -6.29425e-05 185 1.56967C180.653 4.66671 178.248 8.06073 177.615 12.0063C177.024 16.1639 176.644 20.4065 176.56 24.6066C176.349 31.1825 175.505 39.7524 171.116 47.4738C167.15 54.3042 162.381 60.668 156.938 66.353C153.773 69.747 150.101 71.1046 145.797 70.5106C140.607 69.7894 135.416 68.8561 130.901 67.9651C117.524 65.4196 103.936 62.7892 90.5588 60.1589C89.6726 59.9468 88.8286 59.5225 88.2378 58.8861C87.0563 57.5709 85.5371 56.6376 83.8491 56.2133C83.0474 56.0436 82.2456 55.7467 81.486 55.4921C81.1484 55.3648 80.8108 55.28 80.5154 55.1527L79.2073 54.7285L113.304 62.662L113.642 61.4316L74.481 48.8314L81.3594 49.892L80.22 48.9162C78.9963 47.8556 77.6881 47.0071 76.4221 46.1586C75.8314 45.7767 75.2406 45.3525 74.6498 44.9707C72.6242 43.5282 70.5143 42.9343 68.4466 43.2312C66.3366 43.5282 64.1845 43.91 62.1167 44.2494C60.6398 44.504 59.1628 44.801 57.6858 45.0131C56.8841 45.1404 56.1245 45.0555 55.8291 44.801C51.8202 41.6191 47.3893 40.4312 42.1989 41.1524C38.9917 41.6191 36.6708 41.1948 34.6453 39.7099C33.6747 39.116 32.6619 38.6493 31.5647 38.4372C28.9062 37.7584 27.2605 38.3948 25.5725 40.7281C25.2771 41.11 24.8129 41.3645 24.3487 41.4069C19.9179 41.8312 15.9934 43.5706 12.4065 46.7525C11.1405 47.8556 10.7607 49.0859 11.1827 50.4859C11.4359 51.4193 11.1827 52.1405 10.3387 52.9042C9.28374 53.9224 8.27097 55.0254 7.38479 56.1285C6.45642 57.1891 6.41422 58.2922 7.34259 59.5649C8.65076 61.3892 9.91673 63.2984 11.0983 65.1226L11.6047 65.8863C12.4909 67.2863 13.799 67.7106 15.276 67.1166C15.7824 66.9469 16.2888 66.6924 16.7107 66.353C18.3987 64.7408 20.0867 64.656 22.1966 66.0984C24.3487 67.5833 26.6275 67.4136 28.9484 65.6317C29.8768 64.9105 31.185 64.6984 32.5353 65.0802C33.9701 65.462 35.1938 66.4378 35.7002 67.6257C36.8818 70.3834 38.1056 73.141 39.2871 75.8562C39.8357 77.0865 40.3843 78.3593 40.9329 79.5896C40.3843 79.5896 39.7935 79.5472 39.2449 79.5472C37.5148 79.5048 35.9112 79.5048 34.2233 79.3775C33.2105 79.3351 32.1977 79.2078 31.185 79.0805C29.708 78.9108 28.1888 78.7411 26.6697 78.7411C23.2516 78.7411 20.6774 80.0987 19.2427 82.7291C18.4831 84.214 17.8923 85.7413 17.5547 87.3534C16.3732 91.9778 17.3437 96.1779 20.382 99.8689C21.2682 100.972 22.914 101.481 24.3487 101.142C25.4037 100.887 26.1633 100.208 26.3743 99.2749C26.4587 98.8931 26.5853 98.5113 26.7119 98.087C27.2605 96.1779 27.9356 93.9718 25.9945 91.8081C25.3615 91.0869 25.1505 90.1959 25.4459 89.3474C25.7835 88.3717 26.7119 87.608 27.8512 87.3534C28.8218 87.1413 29.8768 87.1413 30.8052 87.3959C32.9573 88.0322 35.1094 88.7535 37.1772 89.4323C39.7513 90.2808 42.4521 91.1293 45.1106 91.8929C48.4443 92.8263 51.8624 93.6748 55.1539 94.4809C56.7997 94.8627 58.4454 95.287 60.0912 95.7112C60.6398 95.8385 61.4415 95.9658 61.9901 95.5415C62.4121 95.2021 62.6653 94.6506 62.7075 93.8445C62.7919 92.1899 62.9607 90.5353 63.1295 88.9232C63.2561 87.6928 63.3405 86.4201 63.4671 85.1473C63.5093 84.7655 63.5093 84.4261 63.5093 84.0443C64.2267 86.8019 64.6487 89.5171 64.0579 92.3172C63.8047 93.5051 64.3111 94.2688 65.4926 94.6082C66.843 94.99 68.2356 95.4567 69.5859 95.8385C72.7508 96.8143 76.0002 97.8749 79.3339 98.4264C90.7276 100.378 102.374 102.16 113.599 103.899C117.777 104.536 121.955 105.172 126.132 105.851C127.441 106.063 128.707 106.233 130.015 106.445C130.605 106.53 131.238 106.614 131.829 106.699L132.251 106.742L132.42 105.639L92.1201 95.4567C94.6521 95.7536 97.1418 96.093 99.3783 96.39C103.05 96.8991 107.227 97.4506 111.489 96.6446C114.739 96.093 118.072 95.9658 121.364 96.1779C129.593 96.6446 136.007 100.166 140.522 106.699C142.21 109.16 143.94 111.663 145.46 114.251C147.316 117.433 150.017 119.681 153.688 121.124C155.165 121.76 156.727 122.312 158.33 122.694C162.803 123.669 168.753 124.9 174.788 126.003C177.066 126.385 179.261 127.403 181.033 128.93C185.844 132.918 189.6 137.797 193.355 142.846C195.296 145.434 197.448 148.149 200.191 151.288C200.782 151.967 201.626 152.349 202.47 152.349C202.597 152.349 202.723 152.349 202.85 152.306C203.778 152.179 204.58 151.628 205.002 150.822C205.804 149.252 205.762 147.725 204.96 146.367C204.918 146.282 204.833 146.197 204.791 146.07C204.664 145.858 204.411 145.518 204.454 145.349C204.707 143.567 203.694 142.464 202.639 141.53C202.133 141.064 201.584 140.512 201.12 140.046C200.529 139.452 199.938 138.858 199.305 138.264C194.621 134.148 190.908 128.888 188.587 123.118L188.545 123.075C188.123 122.354 187.49 121.803 186.73 121.506C179.556 118.578 172.214 115.609 165.124 112.766L161.031 111.112L235.512 129.821L234.584 128.76C234.204 128.294 233.655 127.997 233.107 127.87C228.211 126.3 223.359 124.688 218.464 123.118C202.344 117.9 185.717 112.469 169.302 107.251C166.559 106.402 165.588 105.257 165.631 103.008C165.631 101.523 164.66 101.057 163.732 100.76C159.681 99.4022 155.587 98.0022 151.621 96.6021L141.071 92.9536L260.367 123.924L260.789 124.009L260.916 123.585C260.958 123.5 260.958 123.372 261 123.288L261.127 122.906L135.416 82.2624ZM132.715 89.9838L132.42 91.002L151.283 97.4931C155.25 98.8507 159.343 100.293 163.394 101.651C164.322 101.948 164.744 102.245 164.702 103.093C164.66 106.36 166.728 107.463 168.964 108.142C185.38 113.36 202.048 118.748 218.126 124.009C220.995 124.942 223.823 125.876 226.692 126.809L157.571 109.457L157.191 109.372L156.811 110.433L157.739 110.815C158.119 110.984 158.541 111.154 158.921 111.324L164.702 113.657C171.792 116.5 179.092 119.469 186.308 122.397C186.899 122.609 187.363 123.033 187.658 123.542C190.064 129.439 193.862 134.785 198.63 138.985C199.263 139.536 199.854 140.13 200.402 140.724C200.909 141.233 201.415 141.743 201.964 142.252C202.934 143.143 203.694 143.949 203.483 145.349C203.399 145.815 203.694 146.282 203.947 146.664C203.989 146.749 204.074 146.834 204.116 146.918C204.791 148.021 204.791 149.209 204.116 150.525C203.821 151.076 203.272 151.458 202.639 151.543C201.922 151.628 201.204 151.373 200.74 150.779C198.039 147.64 195.887 144.967 193.946 142.379C190.148 137.288 186.392 132.367 181.497 128.294C179.598 126.682 177.32 125.621 174.872 125.197C168.88 124.094 162.93 122.863 158.457 121.888C156.938 121.506 155.418 120.997 153.941 120.36C150.439 119.003 147.865 116.839 146.135 113.869C144.616 111.239 142.843 108.693 141.155 106.275C136.471 99.5295 129.804 95.8385 121.364 95.3718C120.309 95.287 119.296 95.2445 118.241 95.2445C115.92 95.2445 113.599 95.4567 111.278 95.8385C107.143 96.6446 103.05 96.093 99.4205 95.5839C95.496 95.0324 90.9386 94.4385 86.4233 94.0991L86.2967 94.9476L126.428 105.214C126.301 105.214 126.175 105.172 126.048 105.172C121.87 104.536 117.693 103.857 113.515 103.22C102.29 101.481 90.6432 99.6992 79.2495 97.7476C76.0002 97.1961 72.7508 96.1779 69.6281 95.2021C68.2778 94.7779 66.8852 94.3536 65.4926 93.9294C64.7331 93.7172 64.5221 93.3778 64.6487 92.6566C65.4504 88.7111 64.3533 84.8504 63.2983 81.1594L62.4965 78.4017L62.4121 81.2018C62.4121 81.626 62.4121 82.0503 62.3699 82.4745C62.3699 83.3655 62.3277 84.2988 62.2855 85.2322C62.2011 86.5049 62.0745 87.7777 61.9479 89.008C61.7791 90.6202 61.6525 92.3172 61.5259 93.9294C61.4837 94.4809 61.3571 94.8627 61.1461 94.99C60.9352 95.1597 60.5132 95.1597 59.9646 94.99C58.3188 94.5657 56.6731 94.1839 55.0273 93.7597C51.7358 92.9536 48.3177 92.1051 44.984 91.1717C42.3255 90.4081 39.6669 89.5596 37.0928 88.7111C34.9829 88.0322 32.8307 87.311 30.6786 86.6746C29.5814 86.3777 28.3998 86.3777 27.3027 86.6322C25.8257 86.9292 24.6863 87.905 24.2221 89.1777C23.8424 90.3232 24.0955 91.5535 24.9395 92.5293C26.5431 94.3536 26.0367 96.1355 25.4881 98.0022C25.3615 98.4264 25.2349 98.8083 25.1505 99.2325C24.9395 100.039 24.2221 100.336 23.758 100.463C22.6186 100.717 21.3526 100.336 20.6774 99.4871C17.8079 96.0082 16.9217 92.0626 18.0189 87.7353C18.3565 86.208 18.9051 84.6807 19.6225 83.3231C21.226 80.3957 24.1377 79.8018 26.2899 79.8018C27.7668 79.8018 29.2438 79.9715 30.7208 80.1412C31.7335 80.2684 32.7885 80.3957 33.8013 80.4381C35.4892 80.523 37.1772 80.5654 38.8651 80.6078C39.5825 80.6078 40.2577 80.6503 40.9751 80.6503L41.1439 80.7775L41.3971 80.5654C41.4815 80.523 41.5659 80.3533 41.6081 80.1836L41.7769 79.8018H41.5237C40.9329 78.4442 40.2999 77.0441 39.7091 75.6865C38.5276 73.0137 37.3038 70.2137 36.1222 67.4985C35.4892 66.056 34.0967 64.9105 32.3665 64.4438C30.763 64.0196 29.2016 64.2741 28.0622 65.1651C26.0367 66.7348 24.1377 66.8621 22.3232 65.6317C19.8757 63.9772 17.7657 64.062 15.7824 65.9287C15.4448 66.1833 15.065 66.3954 14.6008 66.5227C13.4614 66.9469 12.6175 66.6924 11.9423 65.6317L11.4359 64.8681C10.2121 63.0014 8.98835 61.0922 7.63799 59.268C6.96281 58.3346 6.96281 57.6558 7.63799 56.8921C8.52416 55.7891 9.53694 54.7285 10.5497 53.7527C11.6469 52.7769 12.0267 51.6738 11.6469 50.4435C11.3093 49.3405 11.6469 48.4495 12.6175 47.601C16.0778 44.5464 19.8335 42.8494 24.0955 42.4676C24.8129 42.3827 25.4459 42.0433 25.9101 41.4494C27.3871 39.3705 28.6952 38.8614 31.0162 39.4978C32.0289 39.7099 32.9573 40.0918 33.8013 40.6433C35.9956 42.2555 38.4854 42.7221 41.9457 42.213C46.8829 41.4918 51.1028 42.6373 54.9007 45.6495C55.6181 46.2434 56.9263 46.1161 57.4327 46.0313C58.9096 45.8192 60.4288 45.5222 61.9057 45.2676C63.9735 44.8858 66.0834 44.504 68.1934 44.2494C70.0501 43.9949 71.9491 44.5464 73.8058 45.8616C74.3966 46.2858 75.0296 46.6677 75.6204 47.0919C76.4221 47.6435 77.2661 48.195 78.0679 48.7889L70.5987 47.6435L70.3033 48.7465L107.902 60.8377L70.4299 52.0981L70.0501 52.0132L69.7547 52.9042L80.1778 56.0012C80.5154 56.0861 80.8108 56.2133 81.1484 56.3406C81.9502 56.5952 82.752 56.8921 83.5959 57.0618C85.1573 57.4437 86.5077 58.2922 87.5626 59.4801C88.3222 60.2437 89.2928 60.7953 90.3478 61.0074C103.725 63.6378 117.313 66.2681 130.69 68.8136C135.205 69.6621 140.438 70.6379 145.628 71.3591C150.228 71.9955 154.11 70.5531 157.528 66.9045C163.014 61.1347 167.825 54.7285 171.834 47.8556C176.349 39.9645 177.151 31.2673 177.404 24.5641C177.488 20.4065 177.826 16.2064 178.459 12.0487C179.05 8.31528 181.286 5.17581 185.506 2.20605C187.532 0.763591 190.19 0.381764 192.553 1.23027C193.777 1.6121 194.579 2.24847 194.832 3.01213C195.085 3.77578 194.874 4.70914 194.157 5.72734C193.355 6.87282 192.469 8.0183 191.625 9.16378C190.823 10.2668 189.937 11.3699 189.178 12.5154C187.11 15.3579 185.97 18.7095 185.928 22.2307C185.844 28.4673 184.873 35.0007 182.848 42.7646C181.624 47.4313 179.387 51.9708 175.505 57.4437C171.792 62.7044 167.614 67.6681 163.014 72.1228C162.466 72.6743 161.959 73.2259 161.411 73.8198C161.157 74.1168 160.862 74.4138 160.567 74.7532L160.145 75.2198L212.978 95.8809L141.113 75.5168L140.775 76.5774L151.03 80.4806C151.916 80.82 152.844 81.1594 153.73 81.4988C156.009 82.3897 158.372 83.2806 160.693 84.0867C162.17 84.5958 162.761 85.2746 162.719 86.6322C162.719 87.0989 162.761 87.608 162.845 88.1595C162.845 88.2444 162.888 88.3292 162.888 88.4565L125.288 78.826L124.993 79.8442L251.505 120.912L132.715 89.9838Z" fill="#131413"/>
<path d="M17.5125 83.4502L17.6391 82.6865L16.9217 82.9411C15.8246 83.3653 14.7274 83.7896 13.6302 84.1714C11.0561 85.1048 8.60857 85.9957 6.28763 87.226C4.38868 88.2018 2.82732 90.0685 1.47696 91.7231L1.30816 91.9352C0.506386 92.9959 0.0843977 94.2686 0 95.6262C0.0421989 96.6869 0.506386 97.7051 1.39256 98.3414C1.68795 98.5536 2.02555 98.596 2.40534 98.596C2.74293 98.596 3.12272 98.5536 3.50251 98.4687C3.7557 98.4263 4.00889 98.3839 4.21989 98.3839C4.43088 98.3839 4.59968 98.299 4.76847 98.2566C4.89507 98.2142 5.02167 98.1717 5.10606 98.1717C7.5536 98.596 8.65077 98.3414 9.79014 96.0929C10.8029 94.0565 12.4065 92.9959 14.9384 92.5716C15.487 92.4443 15.9512 92.0625 16.2044 91.5534L16.2466 91.4686C16.5842 89.6018 16.8795 87.7351 17.2171 85.5714C17.3015 84.9351 17.3859 84.2138 17.5125 83.4502ZM16.331 85.4866C15.9934 87.6079 15.698 89.4321 15.3604 91.2988C15.2338 91.5534 15.0228 91.7231 14.7696 91.8079C11.9845 92.2746 10.1699 93.505 8.98836 95.7959C8.05998 97.6202 7.3848 97.7899 5.23266 97.4081C4.93727 97.3657 4.68407 97.4505 4.47308 97.5354C4.34648 97.5778 4.21989 97.6202 4.13549 97.6202C3.8823 97.6202 3.6291 97.6626 3.37591 97.7051C2.82732 97.7899 2.19434 97.8748 1.94115 97.7051C1.30816 97.196 0.928375 96.4323 0.886176 95.6686C0.928375 94.5232 1.30816 93.4201 1.98335 92.4868L2.15214 92.2746C3.5447 90.62 4.93727 88.923 6.70962 87.9897C8.98836 86.8018 11.3937 85.9108 13.9678 84.9775C14.8118 84.6805 15.698 84.3411 16.5842 84.0017C16.4576 84.5532 16.4154 85.0199 16.331 85.4866Z" fill="#131413"/>
<path d="M173.817 130.669C165.799 128.675 157.697 126.681 149.722 124.73C147.696 124.221 145.586 123.669 143.603 123.16C138.919 121.93 134.024 120.657 129.171 119.809C121.828 118.493 114.275 117.433 107.016 116.415C103.978 115.99 100.855 115.566 97.7749 115.099C95.7915 114.802 93.8082 114.548 91.8248 114.251L88.5755 113.784L88.5333 114.208C88.5333 114.293 88.4911 114.378 88.4911 114.463L88.4067 114.887L177.235 132.579L175.632 131.391C175.083 131.051 174.45 130.754 173.817 130.669ZM99.8426 116.245C102.206 116.584 104.569 116.924 106.89 117.263C114.148 118.281 121.659 119.342 129.044 120.657C133.855 121.506 138.708 122.778 143.392 124.009C145.417 124.518 147.485 125.069 149.553 125.578C154.026 126.681 158.583 127.784 163.099 128.93L99.8426 116.245Z" fill="#131413"/>
<path d="M99.2939 111.79C101.573 112.087 103.894 112.384 106.172 112.681L108.662 112.978L108.831 111.875L61.8635 102.075L61.4415 101.99L61.1883 103.136L61.5681 103.263C62.7496 103.645 63.9312 103.984 65.1128 104.366C67.8135 105.215 70.5986 106.105 73.3838 106.912C74.1011 107.124 74.8185 107.336 75.5359 107.548C78.532 108.439 81.6547 109.372 84.7775 109.924C88.1112 110.518 91.5293 110.9 94.863 111.281C96.2978 111.409 97.8169 111.578 99.2939 111.79ZM75.7469 106.699C75.0295 106.487 74.3121 106.275 73.5948 106.063C71.3582 105.427 69.0795 104.705 66.8851 104.027L100.813 111.112C100.349 111.069 99.8847 110.984 99.4205 110.942C97.9435 110.772 96.4244 110.603 94.9474 110.433C91.6559 110.051 88.2378 109.669 84.9463 109.075C81.8235 108.481 78.743 107.59 75.7469 106.699Z" fill="#131413"/>
<path d="M29.8346 88.4565C29.2438 88.3293 28.653 88.3293 28.1044 88.4141C27.6403 88.4565 26.7963 88.6687 26.4165 89.2626C26.2899 89.5172 26.1211 89.899 26.3321 90.4929C26.6275 91.3414 27.5559 92.3596 28.3998 92.4869C30.6364 92.8263 32.9573 93.0809 35.1939 93.3354C36.8818 93.5475 38.612 93.7172 40.3421 93.9718C42.0723 94.2263 43.8024 94.5233 45.4904 94.8627C46.25 95.0324 47.0517 95.1597 47.8113 95.287L48.1911 95.3718L48.5287 93.9718L44.1822 92.699C39.4981 91.299 34.6453 89.8566 29.8346 88.4565ZM45.617 94.0142C43.929 93.6748 42.1567 93.3354 40.4265 93.1233C38.6964 92.9112 36.9662 92.699 35.2782 92.4869C33.0417 92.2324 30.763 91.9778 28.5264 91.6384C28.1044 91.5536 27.3871 90.8323 27.1339 90.196C27.0495 89.899 27.0917 89.7717 27.1339 89.7293C27.2605 89.5172 27.6825 89.3475 28.231 89.2626C28.442 89.2202 28.653 89.2202 28.864 89.2202C29.1172 89.2202 29.3704 89.2626 29.6236 89.305C34.3921 90.7051 39.2449 92.1475 43.9712 93.5051L45.828 94.0566C45.7436 94.0142 45.7014 94.0142 45.617 94.0142Z" fill="#131413"/>
<path d="M14.5165 51.8012L14.3899 51.8436C13.9679 52.0558 13.8835 52.6073 13.7991 53.2861C13.7569 53.5831 13.7147 53.88 13.6725 54.177L13.4615 55.068L18.8207 52.2255L18.3144 51.8012C16.8796 50.6133 15.5292 51.2921 14.5165 51.8012Z" fill="#131413"/>
<path d="M30.4253 40.813C28.7374 40.8554 26.4586 42.2979 25.4459 44.0373L24.7707 45.1404L27.0494 44.207C28.653 43.5706 29.6236 43.4009 30.2143 43.7403C30.8051 44.0373 31.2693 44.8858 31.6913 46.4555C32.0289 47.7283 32.1133 49.0859 32.1555 50.3587C32.1977 50.9526 32.2399 51.5466 32.2821 52.1405L32.4087 53.2012L33.0839 52.3527C35.236 49.5526 34.7296 43.7828 32.1133 41.4494C31.6491 41.0675 31.0583 40.8554 30.4253 40.813ZM33.0839 50.6132C33.0839 50.5284 33.0839 50.4011 33.0839 50.3162C32.9995 48.9586 32.9151 47.5586 32.5775 46.2434C32.0711 44.3767 31.5225 43.4009 30.6363 42.9767C30.2987 42.807 29.919 42.7221 29.497 42.7221C28.9062 42.7221 28.1888 42.8918 27.2604 43.2312C28.231 42.3827 29.497 41.7463 30.4253 41.7039C30.8473 41.7463 31.2693 41.8736 31.5647 42.1706C33.4637 43.8252 34.0966 47.9829 33.0839 50.6132Z" fill="#131413"/>
</g>
<path d="M204.116 63.12H211.172V97.152H220.628V102H204.116V63.12ZM230.127 63.12H237.711L245.487 102H238.911L237.375 93.024H230.607L229.023 102H222.351L230.127 63.12ZM236.607 88.512L233.967 72.192L231.327 88.512H236.607ZM259.865 102.528C257.049 102.528 254.841 102.016 253.241 100.992C251.641 99.968 250.521 98.512 249.881 96.624C249.241 94.736 248.921 92.336 248.921 89.424V63.12H255.833V90.24C255.833 92.48 256.089 94.208 256.601 95.424C257.145 96.64 258.233 97.248 259.865 97.248C261.529 97.248 262.617 96.64 263.129 95.424C263.673 94.208 263.945 92.48 263.945 90.24V63.12H270.809V89.424C270.809 92.304 270.489 94.704 269.849 96.624C269.209 98.512 268.089 99.968 266.489 100.992C264.889 102.016 262.681 102.528 259.865 102.528ZM276.397 63.12H281.341L290.797 85.296V63.12H296.653V102H291.949L282.445 78.768V102H276.397V63.12ZM313.017 102.528C308.985 102.528 306.121 101.408 304.425 99.168C302.761 96.896 301.929 93.696 301.929 89.568V75.696C301.929 71.44 302.761 68.208 304.425 66C306.089 63.792 308.953 62.688 313.017 62.688C316.825 62.688 319.529 63.648 321.129 65.568C322.729 67.488 323.529 70.256 323.529 73.872V77.136H316.713V73.776C316.713 72.4 316.649 71.328 316.521 70.56C316.393 69.76 316.057 69.12 315.513 68.64C315.001 68.128 314.185 67.872 313.065 67.872C311.913 67.872 311.049 68.144 310.473 68.688C309.897 69.2 309.513 69.904 309.321 70.8C309.161 71.664 309.081 72.8 309.081 74.208V91.056C309.081 93.264 309.369 94.864 309.945 95.856C310.521 96.816 311.561 97.296 313.065 97.296C314.153 97.296 314.953 97.04 315.465 96.528C316.009 96.016 316.345 95.344 316.473 94.512C316.633 93.648 316.713 92.512 316.713 91.104V87.6H323.529V90.72C323.529 94.464 322.745 97.376 321.177 99.456C319.609 101.504 316.889 102.528 313.017 102.528ZM328.571 63.12H335.627V79.344H343.547V63.12H350.651V102H343.547V84.432H335.627V102H328.571V63.12ZM378.064 102.528C374.544 102.528 371.904 101.536 370.144 99.552C368.416 97.568 367.472 94.608 367.312 90.672L373.408 89.472C373.504 91.936 373.888 93.824 374.56 95.136C375.264 96.416 376.352 97.056 377.824 97.056C378.912 97.056 379.712 96.736 380.224 96.096C380.768 95.424 381.04 94.528 381.04 93.408C381.04 91.872 380.688 90.576 379.984 89.52C379.312 88.432 378.24 87.248 376.768 85.968L371.872 81.696C370.368 80.416 369.232 79.04 368.464 77.568C367.728 76.096 367.36 74.336 367.36 72.288C367.36 69.248 368.24 66.896 370 65.232C371.792 63.536 374.256 62.688 377.392 62.688C380.752 62.688 383.152 63.648 384.592 65.568C386.064 67.456 386.912 70.016 387.136 73.248L381.04 74.304C380.944 72.192 380.64 70.608 380.128 69.552C379.648 68.464 378.688 67.92 377.248 67.92C376.224 67.92 375.424 68.272 374.848 68.976C374.272 69.648 373.984 70.512 373.984 71.568C373.984 72.816 374.224 73.872 374.704 74.736C375.216 75.568 376.032 76.464 377.152 77.424L382 81.696C383.824 83.264 385.248 84.944 386.272 86.736C387.296 88.528 387.808 90.608 387.808 92.976C387.808 94.832 387.392 96.48 386.56 97.92C385.76 99.36 384.624 100.496 383.152 101.328C381.68 102.128 379.984 102.528 378.064 102.528ZM391.991 63.12H403.415C410.039 63.12 413.351 66.8 413.351 74.16C413.351 81.2 409.879 84.72 402.935 84.72H399.047V102H391.991V63.12ZM401.783 79.728C403.703 79.728 404.999 79.328 405.671 78.528C406.343 77.696 406.679 76.224 406.679 74.112C406.679 72.576 406.567 71.408 406.343 70.608C406.119 69.776 405.655 69.152 404.951 68.736C404.279 68.32 403.223 68.112 401.783 68.112H399.047V79.728H401.783ZM427.911 102.528C423.879 102.528 420.999 101.456 419.271 99.312C417.543 97.136 416.679 93.968 416.679 89.808V75.216C416.679 71.088 417.543 67.968 419.271 65.856C420.999 63.744 423.879 62.688 427.911 62.688C431.911 62.688 434.775 63.744 436.503 65.856C438.231 67.968 439.095 71.088 439.095 75.216V89.808C439.095 93.936 438.215 97.088 436.455 99.264C434.727 101.44 431.879 102.528 427.911 102.528ZM427.911 97.296C429.479 97.296 430.535 96.8 431.079 95.808C431.623 94.816 431.895 93.376 431.895 91.488V73.584C431.895 71.696 431.623 70.272 431.079 69.312C430.567 68.352 429.511 67.872 427.911 67.872C426.311 67.872 425.239 68.368 424.695 69.36C424.151 70.32 423.879 71.728 423.879 73.584V91.488C423.879 93.376 424.151 94.816 424.695 95.808C425.239 96.8 426.311 97.296 427.911 97.296ZM448.05 68.352H441.858V63.12H461.202V68.352H455.154V102H448.05V68.352Z" fill="#FCFCFC"/>
<path d="M207.399 116.56H211.191L215.079 136H211.791L211.023 131.512H207.639L206.847 136H203.511L207.399 116.56ZM210.639 129.256L209.319 121.096L207.999 129.256H210.639ZM217.034 116.56H221.618C223.186 116.56 224.418 116.776 225.314 117.208C226.21 117.624 226.842 118.272 227.21 119.152C227.594 120.016 227.786 121.168 227.786 122.608V129.688C227.786 131.16 227.594 132.352 227.21 133.264C226.842 134.176 226.218 134.864 225.338 135.328C224.458 135.776 223.266 136 221.762 136H217.034V116.56ZM221.666 133.528C222.45 133.528 223.018 133.392 223.37 133.12C223.722 132.848 223.946 132.472 224.042 131.992C224.138 131.496 224.186 130.768 224.186 129.808V122.368C224.186 121.504 224.13 120.848 224.018 120.4C223.906 119.952 223.666 119.624 223.298 119.416C222.946 119.192 222.386 119.08 221.618 119.08H220.562V133.528H221.666ZM230.682 116.56H234.354L237.114 130.024L239.97 116.56H243.546L243.906 136H241.266L240.978 122.488L238.218 136H236.082L233.274 122.44L233.01 136H230.346L230.682 116.56ZM246.873 116.56H250.377V136H246.873V116.56ZM253.386 116.56H255.858L260.586 127.648V116.56H263.514V136H261.162L256.41 124.384V136H253.386V116.56Z" fill="#FCFCFC"/>
<defs>
<clipPath id="clip0">
<rect width="261" height="152.349" fill="white"/>
</clipPath>
</defs>
</svg>
