<svg width="16" height="16" viewBox="0 0 16 16" fill="none" xmlns="http://www.w3.org/2000/svg">
<path d="M14.5207 3.38215C14.5205 3.377 14.5199 3.37184 14.519 3.36671C14.499 3.33814 14.4744 3.31356 14.4539 3.28556C14.3045 3.08207 14.1463 2.88621 13.9794 2.69795C13.9337 2.64651 13.888 2.59563 13.8411 2.54533C13.6693 2.36129 13.489 2.1858 13.3004 2.01891C13.2655 1.98803 13.2329 1.95604 13.1981 1.92573C12.7332 1.52748 12.2242 1.18379 11.6811 0.901455C11.6593 0.890034 11.6365 0.880321 11.6142 0.868867C11.3723 0.745953 11.1243 0.635463 10.8711 0.537902C10.8139 0.517338 10.7619 0.49788 10.7076 0.480732C10.4824 0.399581 10.2538 0.328512 10.0217 0.267523C9.95313 0.249237 9.88454 0.230381 9.81481 0.214372C9.58616 0.161221 9.35755 0.120629 9.12374 0.087472C9.05288 0.07719 8.98315 0.0634584 8.91167 0.0548846C8.30953 -0.0182949 7.70075 -0.0182949 7.09857 0.0548846C7.02713 0.0634584 6.9574 0.07719 6.8865 0.087472C6.65272 0.120629 6.4218 0.161221 6.19543 0.214372C6.1257 0.230381 6.05711 0.249237 5.98852 0.267523C5.75491 0.328478 5.5263 0.399548 5.30261 0.480732C5.24544 0.500157 5.19342 0.519616 5.13913 0.537902C4.88597 0.635463 4.63793 0.745919 4.39605 0.868867C4.37375 0.880288 4.35091 0.890001 4.32917 0.901455C3.78423 1.18349 3.27351 1.52715 2.807 1.92573C2.77214 1.95601 2.73955 1.98803 2.70469 2.01891C2.51415 2.18657 2.3339 2.36206 2.16396 2.54533C2.11711 2.59563 2.07136 2.64651 2.02564 2.69795C1.85835 2.88581 1.7002 3.08167 1.55123 3.28553C1.53067 3.31353 1.50609 3.33811 1.48606 3.36668C1.48345 3.37167 1.48113 3.37683 1.47919 3.38212C-0.492332 6.14509 -0.492332 9.85496 1.47919 12.6179C1.48113 12.6232 1.48341 12.6283 1.48606 12.6333C1.50605 12.6619 1.53064 12.6865 1.55123 12.7145C1.70024 12.918 1.85835 13.1138 2.02564 13.3021C2.07136 13.3535 2.11711 13.4044 2.16396 13.4547C2.33621 13.6388 2.51643 13.8143 2.70469 13.9811C2.73955 14.012 2.77214 14.044 2.807 14.0743C3.27187 14.4726 3.78088 14.8163 4.32401 15.0986C4.34575 15.11 4.36859 15.1197 4.3909 15.1312C4.63277 15.2541 4.88078 15.3646 5.13398 15.4621C5.19115 15.4827 5.24316 15.5022 5.29745 15.5193C5.52265 15.6005 5.7513 15.6715 5.98336 15.7325C6.05195 15.7508 6.12054 15.7697 6.19027 15.7857C6.41892 15.8388 6.64753 15.8794 6.88134 15.9126C6.95221 15.9229 7.02194 15.9366 7.09341 15.9452C7.69556 16.0183 8.30434 16.0183 8.90652 15.9452C8.97795 15.9366 9.04768 15.9229 9.11859 15.9126C9.35236 15.8794 9.58328 15.8388 9.80965 15.7857C9.87938 15.7697 9.94797 15.7508 10.0166 15.7325C10.2505 15.6716 10.4792 15.6005 10.7025 15.5193C10.7596 15.4999 10.8117 15.4804 10.8659 15.4621C11.1191 15.3646 11.3672 15.2541 11.609 15.1312C11.6313 15.1198 11.6542 15.11 11.6759 15.0986C12.219 14.8162 12.7281 14.4726 13.1929 14.0743C13.2278 14.044 13.2604 14.012 13.2952 13.9811C13.4858 13.8139 13.666 13.6384 13.836 13.4547C13.8828 13.4044 13.9286 13.3535 13.9743 13.3021C14.1416 13.1138 14.2997 12.918 14.4487 12.7145C14.4693 12.6865 14.4938 12.6619 14.5139 12.6333C14.5165 12.6283 14.5188 12.6232 14.5207 12.6179C16.4923 9.855 16.4923 6.14512 14.5207 3.38215ZM13.8685 4.46363C14.4152 5.36392 14.7453 6.37886 14.8328 7.42849H11.409C11.3671 6.7474 11.2599 6.07194 11.0889 5.41135C12.056 5.23023 12.9922 4.91105 13.8685 4.46363ZM9.45699 1.2987C9.48901 1.30614 9.51985 1.31642 9.55187 1.32385C9.7565 1.37188 9.95943 1.42674 10.1578 1.49533C10.1881 1.50561 10.2178 1.51764 10.2475 1.52849C10.4442 1.59708 10.6379 1.6731 10.8277 1.75713C10.8609 1.77257 10.8934 1.78972 10.9266 1.80516C11.1084 1.89167 11.2859 1.98521 11.4593 2.08582L11.5736 2.15498C11.7382 2.25559 11.8983 2.36323 12.0538 2.47794C12.0938 2.50708 12.1338 2.53511 12.1732 2.5671C12.3257 2.68141 12.4716 2.80392 12.6111 2.93464C12.6476 2.96779 12.6854 3.00038 12.7214 3.03468C12.8677 3.17357 13.0072 3.32046 13.1421 3.47251C13.1592 3.49251 13.1775 3.51079 13.1947 3.52968C12.4207 3.89853 11.6008 4.16191 10.7568 4.31275C10.3659 3.23794 9.84937 2.21302 9.21812 1.25931C9.2975 1.27358 9.37868 1.28159 9.45699 1.2987ZM5.73706 7.42846C5.78214 6.81 5.88744 6.1974 6.05145 5.59937C6.69908 5.6763 7.35069 5.71445 8.00288 5.71368C8.65566 5.71348 9.30788 5.67436 9.95601 5.59649C10.1197 6.19549 10.2244 6.80906 10.2687 7.42846H5.73706ZM10.2687 8.57166C10.2236 9.19012 10.1183 9.80272 9.95427 10.4007C9.30664 10.3238 8.65503 10.2857 8.00284 10.2864C7.35009 10.2857 6.69791 10.3238 6.04971 10.4007C5.88617 9.80268 5.78147 9.19009 5.73703 8.57166H10.2687ZM8.00284 1.51365C8.65332 2.43558 9.18832 3.4338 9.59588 4.48594C9.06674 4.54214 8.53499 4.57037 8.00284 4.57054C7.4713 4.5699 6.94012 4.5415 6.41152 4.48537C6.81958 3.43393 7.35394 2.43605 8.00284 1.51365ZM2.86424 3.47191C2.99858 3.31986 3.13861 3.17296 3.28493 3.03407C3.32094 2.99978 3.35868 2.96719 3.39525 2.93403C3.53625 2.80563 3.68221 2.68311 3.83309 2.5665C3.87254 2.53619 3.91253 2.50933 3.95256 2.47734C4.10802 2.36303 4.26808 2.25536 4.43269 2.15438L4.547 2.08522C4.72039 1.98387 4.89796 1.8903 5.07972 1.80456C5.11288 1.78912 5.14546 1.77197 5.17862 1.75653C5.36838 1.67079 5.56217 1.59477 5.7588 1.52788C5.78851 1.51703 5.81597 1.50501 5.84852 1.49473C6.04686 1.42841 6.24865 1.37355 6.45442 1.32325C6.48644 1.31581 6.51728 1.30553 6.54987 1.29867C6.62818 1.28152 6.70936 1.27351 6.7888 1.25921C6.15728 2.21309 5.64064 3.23821 5.24949 4.31322C4.40553 4.16238 3.58559 3.899 2.81166 3.53015C2.82881 3.51019 2.84709 3.49191 2.86424 3.47191ZM2.13717 4.46363C3.01335 4.91102 3.94927 5.23019 4.91625 5.41135C4.74547 6.07197 4.63847 6.74743 4.59674 7.42849H1.17291C1.26046 6.37886 1.59055 5.36392 2.13717 4.46363ZM2.13717 11.5365C1.59052 10.6362 1.26042 9.62129 1.17291 8.57166H4.59674C4.63867 9.25275 4.74584 9.92821 4.91682 10.5888C3.94968 10.7699 3.01355 11.0891 2.13717 11.5365ZM6.54873 14.7014C6.51672 14.694 6.48587 14.6837 6.45385 14.6763C6.24922 14.6282 6.04629 14.5734 5.84795 14.5048C5.81764 14.4945 5.78794 14.4825 5.75819 14.4716C5.56156 14.403 5.36782 14.327 5.17802 14.243C5.14486 14.2275 5.11227 14.2104 5.07912 14.195C4.89736 14.1084 4.71978 14.0149 4.5464 13.9143L4.43209 13.8451C4.26748 13.7445 4.10742 13.6369 3.95195 13.5222C3.91193 13.493 3.87194 13.465 3.83249 13.433C3.68007 13.3187 3.53411 13.1962 3.39465 13.0655C3.35808 13.0323 3.32033 12.9997 3.28433 12.9654C3.138 12.8265 2.99854 12.6797 2.86364 12.5276C2.84649 12.5076 2.8282 12.4893 2.81106 12.4704C3.58502 12.1016 4.40493 11.8382 5.24889 11.6874C5.63987 12.7622 6.15634 13.7871 6.7876 14.7408C6.70819 14.7266 6.62704 14.7186 6.54873 14.7014ZM8.00284 14.4865C7.35237 13.5646 6.81737 12.5664 6.40981 11.5142C7.46838 11.4003 8.53613 11.4003 9.5947 11.5142L9.59414 11.5148C9.18614 12.5662 8.65178 13.5641 8.00284 14.4865ZM13.1415 12.5282C13.0071 12.6803 12.8671 12.8272 12.7208 12.966C12.6848 13.0003 12.647 13.0329 12.6105 13.0661C12.4695 13.1949 12.3235 13.3174 12.1726 13.4336C12.1332 13.4639 12.0932 13.4936 12.0532 13.5228C11.8977 13.6371 11.7376 13.7448 11.573 13.8457L11.4587 13.9149C11.2857 14.0159 11.1081 14.1094 10.926 14.1956C10.8928 14.211 10.8603 14.2281 10.8271 14.2436C10.6373 14.3293 10.4436 14.4053 10.2469 14.4722C10.2172 14.4831 10.1898 14.4951 10.1572 14.5054C9.95886 14.5717 9.75707 14.6266 9.5513 14.6769C9.51928 14.6843 9.48844 14.6946 9.45585 14.7014C9.37754 14.7186 9.29636 14.7266 9.21692 14.7409C9.84817 13.7872 10.3647 12.7623 10.7556 11.6875C11.5996 11.8383 12.4195 12.1017 13.1935 12.4705C13.1769 12.4899 13.1586 12.5082 13.1415 12.5282ZM13.8685 11.5365C12.9924 11.0891 12.0564 10.77 11.0895 10.5888C11.2602 9.92818 11.3673 9.25272 11.409 8.57166H14.8328C14.7453 9.62126 14.4152 10.6362 13.8685 11.5365Z" fill="#F8F8F8"/>
</svg>
