<svg width="12" height="12" viewBox="0 0 12 10" fill="none" xmlns="http://www.w3.org/2000/svg">
<path d="M1.425 2.15019C1.425 2.00019 1.35 1.85019 1.275 1.77519L0.15 0.425195V0.200195H3.6L6.3 6.12519L8.7 0.200195H12V0.425195L11.025 1.3252C10.95 1.4002 10.875 1.47519 10.95 1.62519V8.37519C10.95 8.45019 10.95 8.60019 11.025 8.67519L11.925 9.57519V9.80019H7.2V9.57519L8.175 8.60019C8.25 8.52519 8.25 8.45019 8.25 8.30019V2.8252L5.55 9.6502H5.25L2.1 2.8252V7.4002C2.1 7.6252 2.175 7.77519 2.25 7.92519L3.525 9.42519V9.6502H0V9.42519L1.275 7.92519C1.425 7.77519 1.5 7.6252 1.425 7.4002V2.15019Z" fill="#F8F8F8"/>
</svg>
