<svg width="13" height="13" viewBox="0 0 13 11" fill="none" xmlns="http://www.w3.org/2000/svg">
<path d="M1.07494 4.78122C4.29616 3.37779 6.44414 2.45256 7.51889 2.00553C10.5875 0.729185 11.2251 0.50747 11.6407 0.500071C11.7322 0.498539 11.9365 0.521192 12.0689 0.628617C12.1807 0.719324 12.2115 0.841857 12.2262 0.927857C12.2409 1.01386 12.2592 1.20977 12.2447 1.36285C12.0784 3.11007 11.3588 7.35012 10.9928 9.30704C10.8379 10.1351 10.5329 10.4127 10.2376 10.4399C9.59596 10.4989 9.1087 10.0158 8.4872 9.60843C7.51468 8.97093 6.96527 8.57408 6.02127 7.952C4.93032 7.23308 5.63754 6.83795 6.25927 6.19219C6.42198 6.02319 9.24923 3.45159 9.30395 3.21831C9.31079 3.18913 9.31714 3.08038 9.25253 3.02295C9.18793 2.96553 9.09257 2.98516 9.02375 3.00078C8.92621 3.02292 7.3726 4.0498 4.36292 6.08142C3.92193 6.38424 3.5225 6.53178 3.16462 6.52405C2.77009 6.51552 2.01117 6.30097 1.44699 6.11758C0.754996 5.89264 0.205016 5.77372 0.252907 5.3917C0.277852 5.19272 0.551862 4.98923 1.07494 4.78122Z" fill="#F8F8F8"/>
</svg>
